<svg width="804" height="944" viewBox="0 0 804 944" fill="none" xmlns="http://www.w3.org/2000/svg">
<path d="M636.713 0C999.713 475 741.713 970 131.213 942.5C-322.287 366.5 546.713 205.5 636.713 0Z" fill="#A5CF4E"/>
<path d="M131.09 943.5C680.164 956 831.287 624.5 799.287 373.5C736.287 806.5 393.164 880.5 146.164 902.5C131.09 891.5 94.1644 866.5 36.1644 786.5C37.6644 794.5 59.9174 851.31 131.09 943.5Z" fill="#85AD40"/>
<path d="M183.287 726.5C162.975 761.046 158.787 796.5 172.287 826C175.787 793 176.147 773.69 205.287 749.5C257.787 715.5 388.287 766.5 440.287 693C390.287 736 266.787 701.5 210.287 722C253.338 656.694 282.312 630.094 344.787 605C449.787 564.9 536.287 617 584.787 543.5C538.287 579.794 498.287 562 376.787 564C436.877 520.318 473.287 492.5 522.787 437.5C591.787 420 627.787 410 655.287 366.5C622.287 399 592.287 404 538.787 416C601.158 327.251 598.787 278 600.287 209C592.287 314.5 555.287 368.5 455.287 464.5C460.787 403 420.787 341.5 443.287 300.5C394.787 347 455.287 420.5 432.287 477.5C414.916 513.69 377.787 539.5 338.787 560.5C355.787 507 280.787 445 317.787 359.5C259.287 429 323.787 505.5 310.787 582.5C271.924 614.514 221.787 670 209.287 689C209.287 636.5 116.287 612 116.287 511C86.7871 592.5 172.287 659 183.287 726.5Z" fill="#629444"/>
</svg>
